<svg width="800" height="400" xmlns="http://www.w3.org/2000/svg">
  <rect width="800" height="400" fill="#f3f4f6" />
  
  <!-- Background -->
  <rect width="800" height="400" fill="#0f172a" />
  
  <!-- Cyber grid pattern -->
  <g opacity="0.2">
    <line x1="0" y1="40" x2="800" y2="40" stroke="#60a5fa" stroke-width="1" />
    <line x1="0" y1="80" x2="800" y2="80" stroke="#60a5fa" stroke-width="1" />
    <line x1="0" y1="120" x2="800" y2="120" stroke="#60a5fa" stroke-width="1" />
    <line x1="0" y1="160" x2="800" y2="160" stroke="#60a5fa" stroke-width="1" />
    <line x1="0" y1="200" x2="800" y2="200" stroke="#60a5fa" stroke-width="1" />
    <line x1="0" y1="240" x2="800" y2="240" stroke="#60a5fa" stroke-width="1" />
    <line x1="0" y1="280" x2="800" y2="280" stroke="#60a5fa" stroke-width="1" />
    <line x1="0" y1="320" x2="800" y2="320" stroke="#60a5fa" stroke-width="1" />
    <line x1="0" y1="360" x2="800" y2="360" stroke="#60a5fa" stroke-width="1" />
    
    <line x1="40" y1="0" x2="40" y2="400" stroke="#60a5fa" stroke-width="1" />
    <line x1="80" y1="0" x2="80" y2="400" stroke="#60a5fa" stroke-width="1" />
    <line x1="120" y1="0" x2="120" y2="400" stroke="#60a5fa" stroke-width="1" />
    <line x1="160" y1="0" x2="160" y2="400" stroke="#60a5fa" stroke-width="1" />
    <line x1="200" y1="0" x2="200" y2="400" stroke="#60a5fa" stroke-width="1" />
    <line x1="240" y1="0" x2="240" y2="400" stroke="#60a5fa" stroke-width="1" />
    <line x1="280" y1="0" x2="280" y2="400" stroke="#60a5fa" stroke-width="1" />
    <line x1="320" y1="0" x2="320" y2="400" stroke="#60a5fa" stroke-width="1" />
    <line x1="360" y1="0" x2="360" y2="400" stroke="#60a5fa" stroke-width="1" />
    <line x1="400" y1="0" x2="400" y2="400" stroke="#60a5fa" stroke-width="1" />
    <line x1="440" y1="0" x2="440" y2="400" stroke="#60a5fa" stroke-width="1" />
    <line x1="480" y1="0" x2="480" y2="400" stroke="#60a5fa" stroke-width="1" />
    <line x1="520" y1="0" x2="520" y2="400" stroke="#60a5fa" stroke-width="1" />
    <line x1="560" y1="0" x2="560" y2="400" stroke="#60a5fa" stroke-width="1" />
    <line x1="600" y1="0" x2="600" y2="400" stroke="#60a5fa" stroke-width="1" />
    <line x1="640" y1="0" x2="640" y2="400" stroke="#60a5fa" stroke-width="1" />
    <line x1="680" y1="0" x2="680" y2="400" stroke="#60a5fa" stroke-width="1" />
    <line x1="720" y1="0" x2="720" y2="400" stroke="#60a5fa" stroke-width="1" />
    <line x1="760" y1="0" x2="760" y2="400" stroke="#60a5fa" stroke-width="1" />
  </g>
  
  <!-- Shield -->
  <path d="M400,100 L500,130 L500,230 C500,280 460,320 400,350 C340,320 300,280 300,230 L300,130 Z" 
        fill="#1e40af" stroke="#60a5fa" stroke-width="4" />
  
  <!-- Alarm icon -->
  <circle cx="400" cy="200" r="40" fill="none" stroke="#ef4444" stroke-width="8" />
  <path d="M395,170 L405,170 L405,210 L395,210 Z" fill="#ef4444" />
  <path d="M395,220 L405,220 L405,230 L395,230 Z" fill="#ef4444" />
  
  <!-- Sound waves -->
  <path d="M340,200 C330,180 330,220 340,200 M320,200 C300,160 300,240 320,200 M480,200 C490,180 490,220 480,200 M500,200 C520,160 520,240 500,200" 
        fill="none" stroke="#ef4444" stroke-width="4" />
  
  <!-- Text -->
  <text x="400" y="320" font-family="Arial, sans-serif" font-size="28" font-weight="bold" fill="#ffffff" text-anchor="middle">Cyber Alarm Shield</text>
</svg>