<svg width="800" height="600" xmlns="http://www.w3.org/2000/svg">
  <defs>
    <linearGradient id="grad2" x1="0%" y1="0%" x2="100%" y2="100%">
      <stop offset="0%" style="stop-color:#4c51bf;stop-opacity:0.2" />
      <stop offset="100%" style="stop-color:#4c51bf;stop-opacity:0.5" />
    </linearGradient>
  </defs>
  <rect width="100%" height="100%" fill="url(#grad2)" />
  
  <!-- Database icon -->
  <g transform="translate(400, 240)">
    <ellipse cx="0" cy="-60" rx="80" ry="30" fill="#4c51bf" opacity="0.7" />
    <path d="M-80,-60 L-80,40 C-80,73 80,73 80,40 L80,-60" fill="none" stroke="#4c51bf" stroke-width="10" opacity="0.7" />
    <ellipse cx="0" cy="40" rx="80" ry="30" fill="none" stroke="#4c51bf" stroke-width="10" opacity="0.7" />
  </g>
  
  <!-- Document and annotation icons -->
  <g transform="translate(300, 300)">
    <rect x="-40" y="-50" width="80" height="100" fill="white" stroke="#4c51bf" stroke-width="5" opacity="0.9" />
    <line x1="-25" y1="-30" x2="25" y2="-30" stroke="#4c51bf" stroke-width="4" opacity="0.7" />
    <line x1="-25" y1="-15" x2="15" y2="-15" stroke="#4c51bf" stroke-width="4" opacity="0.7" />
    <line x1="-25" y1="0" x2="25" y2="0" stroke="#4c51bf" stroke-width="4" opacity="0.7" />
    <line x1="-25" y1="15" x2="5" y2="15" stroke="#4c51bf" stroke-width="4" opacity="0.7" />
  </g>
  
  <g transform="translate(500, 300)">
    <rect x="-40" y="-50" width="80" height="100" fill="white" stroke="#4c51bf" stroke-width="5" opacity="0.9" />
    <rect x="-25" y="-30" width="50" height="15" fill="#4c51bf" opacity="0.3" rx="2" ry="2" />
    <rect x="-25" y="-5" width="50" height="15" fill="#4c51bf" opacity="0.5" rx="2" ry="2" />
    <rect x="-25" y="20" width="25" height="15" fill="#4c51bf" opacity="0.7" rx="2" ry="2" />
  </g>
  
  <text x="400" y="500" font-family="Arial" font-size="30" fill="#4c51bf" text-anchor="middle">Data Annotation Platform</text>
</svg>