<svg width="800" height="600" xmlns="http://www.w3.org/2000/svg">
  <defs>
    <linearGradient id="grad-js" x1="0%" y1="0%" x2="100%" y2="100%">
      <stop offset="0%" style="stop-color:#f7df1e;stop-opacity:0.2" />
      <stop offset="100%" style="stop-color:#f7df1e;stop-opacity:0.5" />
    </linearGradient>
  </defs>
  <rect width="100%" height="100%" fill="url(#grad-js)" />
  
  <!-- JavaScript logo -->
  <g transform="translate(400, 250)">
    <rect x="-150" y="-150" width="300" height="300" fill="#f7df1e" />
    <path d="M-40,50 L-40,-50 L-10,-50 L-10,80 C-10,100 -30,110 -60,110 L-70,110 L-70,80 L-55,80 C-45,80 -40,75 -40,65 Z" fill="black" />
    <path d="M40,50 L70,30 C90,50 105,50 120,30 L140,50 C115,85 85,85 60,50 L40,60 Z M40,-50 L40,15 C40,35 50,45 70,45 L70,75 C35,80 10,60 10,15 L10,-50 Z" fill="black" />
  </g>
  
  <text x="400" y="500" font-family="Arial" font-size="30" fill="#333" text-anchor="middle">JavaScript Repository</text>
</svg>